<svg width="32" height="32" viewBox="0 0 32 32" fill="none" xmlns="http://www.w3.org/2000/svg">
<g clip-path="url(#clip0_7402_23)">
<path d="M15 8.5C15 12.0899 12.0899 15 8.5 15C4.91015 15 2 12.0899 2 8.5C2 4.91015 4.91015 2 8.5 2C12.0899 2 15 4.91015 15 8.5Z" stroke="#7411AD" stroke-width="2"/>
<path fill-rule="evenodd" clip-rule="evenodd" d="M30.7054 29.2557L25.455 24.0044L30.6755 18.8269C31.0691 18.4372 31.0691 17.8063 30.6755 17.4176C30.2828 17.0289 29.6449 17.0289 29.2523 17.4176L24.0388 22.5882L18.7476 17.296C18.3549 16.9013 17.7171 16.9013 17.3244 17.296C16.9317 17.6897 16.9317 18.3295 17.3244 18.7232L22.6076 24.0074L17.2945 29.2767C16.9018 29.6664 16.9018 30.2972 17.2945 30.6859C17.6872 31.0756 18.325 31.0756 18.7187 30.6859L24.0249 25.4236L29.2832 30.6819C29.6758 31.0766 30.3137 31.0766 30.7064 30.6819C31.098 30.2893 31.098 29.6504 30.7054 29.2557Z" fill="#008B8B"/>
<line x1="32.3482" y1="0.35879" x2="-1.65176" y2="33.3588" stroke="#666666"/>
</g>
<defs>
<clipPath id="clip0_7402_23">
<rect width="32" height="32" fill="white"/>
</clipPath>
</defs>
</svg>
